<?xml version="1.0" encoding="utf-8"?>
<!-- Generator: Adobe Illustrator 25.0.0, SVG Export Plug-In . SVG Version: 6.00 Build 0)  -->
<svg version="1.1" id="Capa_1" xmlns="http://www.w3.org/2000/svg" xmlns:xlink="http://www.w3.org/1999/xlink" x="0px" y="0px"
	 viewBox="0 0 1080 540" style="enable-background:new 0 0 1080 540;" xml:space="preserve">
<g>
	<g>
		<g>
			<g>
				<g>
					<g>
						<path d="M373.5,273.22c-2.53,0-4.86-0.63-7.01-1.89c-2.15-1.26-3.85-2.97-5.12-5.11c-1.26-2.15-1.89-4.48-1.89-7.01v-6.35
							h14.68v5.59h38.65v-11.94H373.5c-2.53,0-4.86-0.63-7.01-1.89c-2.15-1.26-3.85-2.95-5.12-5.07c-1.26-2.11-1.89-4.47-1.89-7.06
							v-13.45c0-2.59,0.63-4.94,1.89-7.06c1.26-2.11,2.97-3.8,5.12-5.07c2.15-1.26,4.48-1.89,7.01-1.89h40.17
							c2.53,0,4.85,0.63,6.96,1.89c2.11,1.26,3.82,2.95,5.12,5.07c1.29,2.12,1.94,4.47,1.94,7.06v6.35h-14.87v-5.59h-38.65v11.94
							h39.5c2.53,0,4.85,0.63,6.96,1.89c2.11,1.26,3.82,2.95,5.12,5.07c1.29,2.12,1.94,4.47,1.94,7.06v13.45
							c0,2.53-0.65,4.86-1.94,7.01c-1.3,2.15-3,3.85-5.12,5.11c-2.12,1.26-4.44,1.89-6.96,1.89H373.5z"/>
						<path d="M462.54,273.22v-25.48L431,205.02h17.53l21.41,26.9l21.31-26.9h17.71l-31.64,42.82v25.39H462.54z"/>
						<path d="M524.02,273.22c-2.53,0-4.86-0.63-7.01-1.89c-2.15-1.26-3.85-2.97-5.12-5.11c-1.26-2.15-1.89-4.48-1.89-7.01v-6.35
							h14.68v5.59h38.65v-11.94h-39.31c-2.53,0-4.86-0.63-7.01-1.89c-2.15-1.26-3.85-2.95-5.12-5.07c-1.26-2.11-1.89-4.47-1.89-7.06
							v-13.45c0-2.59,0.63-4.94,1.89-7.06c1.26-2.11,2.97-3.8,5.12-5.07c2.15-1.26,4.48-1.89,7.01-1.89h40.17
							c2.53,0,4.85,0.63,6.96,1.89c2.11,1.26,3.82,2.95,5.12,5.07c1.29,2.12,1.94,4.47,1.94,7.06v6.35h-14.87v-5.59h-38.65v11.94
							h39.5c2.53,0,4.85,0.63,6.96,1.89c2.11,1.26,3.82,2.95,5.12,5.07c1.29,2.12,1.94,4.47,1.94,7.06v13.45
							c0,2.53-0.65,4.86-1.94,7.01c-1.3,2.15-3,3.85-5.12,5.11c-2.12,1.26-4.44,1.89-6.96,1.89H524.02z"/>
						<path d="M609.09,273.22l-24.82-68.21h15.63l14.87,40.64l14.87-40.64h13.55l14.97,40.64l14.87-40.64h15.54l-24.82,68.21h-11.27
							l-16.1-43.86l-16.01,43.86H609.09z"/>
						<path d="M709.6,273.22c-2.53,0-4.86-0.63-7.01-1.89c-2.15-1.26-3.85-2.97-5.12-5.11c-1.26-2.15-1.89-4.48-1.89-7.01v-40.17
							c0-2.59,0.63-4.94,1.89-7.06c1.26-2.11,2.97-3.8,5.12-5.07c2.15-1.26,4.48-1.89,7.01-1.89h40.17c2.53,0,4.85,0.63,6.96,1.89
							c2.12,1.26,3.82,2.95,5.12,5.07c1.29,2.12,1.94,4.47,1.94,7.06v40.17c0,2.53-0.65,4.86-1.94,7.01c-1.29,2.15-3,3.85-5.12,5.11
							c-2.12,1.26-4.44,1.89-6.96,1.89H709.6z M748.91,258.44v-38.65h-38.65v38.65H748.91z"/>
						<path d="M774.2,273.22v-68.11h54.09c2.59,0,4.94,0.63,7.06,1.89c2.11,1.26,3.82,2.97,5.12,5.11c1.29,2.15,1.94,4.49,1.94,7.01
							v17.62c0,2.53-0.65,4.86-1.94,7.01c-1.3,2.15-3,3.85-5.12,5.12c-2.12,1.26-4.47,1.89-7.06,1.89l-39.41,0.1v22.36H774.2z
							 M827.54,235.99v-16.2h-38.65v16.2H827.54z M827.16,273.22l-19.8-23.59h19.23l15.72,18.57v5.02H827.16z"/>
						<path d="M852.45,273.22v-68.21h14.78v26.71h13.36l22.36-26.71h15.35v5.11l-24.35,28.99l24.35,28.99v5.12h-15.35l-22.36-26.71
							h-13.36v26.71H852.45z"/>
						<path d="M941.68,273.22c-2.53,0-4.86-0.63-7.01-1.89c-2.15-1.26-3.85-2.97-5.12-5.11c-1.26-2.15-1.89-4.48-1.89-7.01v-6.35
							h14.68v5.59H981v-11.94h-39.31c-2.53,0-4.86-0.63-7.01-1.89c-2.15-1.26-3.85-2.95-5.12-5.07c-1.26-2.11-1.89-4.47-1.89-7.06
							v-13.45c0-2.59,0.63-4.94,1.89-7.06c1.26-2.11,2.97-3.8,5.12-5.07c2.15-1.26,4.48-1.89,7.01-1.89h40.17
							c2.53,0,4.85,0.63,6.96,1.89c2.12,1.26,3.82,2.95,5.12,5.07c1.29,2.12,1.94,4.47,1.94,7.06v6.35H981v-5.59h-38.65v11.94h39.5
							c2.53,0,4.85,0.63,6.96,1.89c2.12,1.26,3.82,2.95,5.12,5.07c1.29,2.12,1.94,4.47,1.94,7.06v13.45c0,2.53-0.65,4.86-1.94,7.01
							c-1.29,2.15-3,3.85-5.12,5.11c-2.12,1.26-4.44,1.89-6.96,1.89H941.68z"/>
					</g>
					<g>
						<path d="M386.09,321.74l2.54,2.4c-1.39,1.9-3.21,3.41-5.46,4.51c-2.25,1.1-4.72,1.66-7.41,1.66c-2.33,0-4.48-0.42-6.46-1.27
							c-1.98-0.85-3.7-2.03-5.17-3.56c-1.47-1.53-2.61-3.32-3.42-5.37c-0.82-2.05-1.22-4.29-1.22-6.71c0-2.42,0.41-4.66,1.25-6.73
							c0.83-2.07,1.99-3.87,3.47-5.39c1.48-1.53,3.21-2.71,5.19-3.56c1.98-0.85,4.13-1.27,6.46-1.27c2.69,0,5.15,0.55,7.37,1.65
							c2.22,1.1,4.03,2.61,5.42,4.51l-2.54,2.4c-1.12-1.66-2.54-2.98-4.26-3.94c-1.72-0.97-3.72-1.45-5.98-1.45
							c-2.42,0-4.59,0.6-6.51,1.79c-1.92,1.19-3.44,2.83-4.56,4.9c-1.12,2.07-1.68,4.44-1.68,7.1c0,2.63,0.56,4.98,1.68,7.05
							c1.12,2.07,2.64,3.7,4.56,4.9c1.92,1.19,4.09,1.79,6.51,1.79c2.27,0,4.26-0.48,5.98-1.45
							C383.55,324.71,384.97,323.4,386.09,321.74z"/>
						<path d="M404.41,330.3c-2.27,0-4.29-0.51-6.08-1.54c-1.78-1.03-3.18-2.43-4.19-4.22c-1.01-1.78-1.52-3.82-1.52-6.12
							c0-2.3,0.51-4.34,1.52-6.12c1.01-1.78,2.41-3.19,4.19-4.22c1.78-1.03,3.81-1.54,6.08-1.54c2.3,0,4.33,0.51,6.1,1.54
							c1.77,1.03,3.16,2.43,4.17,4.22c1.01,1.78,1.52,3.82,1.52,6.12c0,2.3-0.51,4.34-1.52,6.12c-1.01,1.78-2.4,3.19-4.17,4.22
							C408.74,329.79,406.7,330.3,404.41,330.3z M404.41,327.36c1.63,0,3.07-0.38,4.31-1.13c1.24-0.76,2.21-1.81,2.9-3.15
							c0.69-1.34,1.04-2.89,1.04-4.65c0-1.75-0.35-3.3-1.04-4.65c-0.7-1.34-1.66-2.39-2.9-3.15c-1.24-0.76-2.67-1.13-4.31-1.13
							c-1.63,0-3.07,0.38-4.31,1.13c-1.24,0.76-2.21,1.81-2.9,3.15c-0.7,1.35-1.04,2.89-1.04,4.65c0,1.75,0.35,3.3,1.04,4.65
							c0.69,1.35,1.66,2.4,2.9,3.15C401.34,326.98,402.77,327.36,404.41,327.36z"/>
						<path d="M441.94,329.58h-3.36V316.7c0-2.39-0.54-4.19-1.63-5.4c-1.09-1.21-2.55-1.81-4.4-1.81c-1.33,0-2.58,0.35-3.76,1.04
							c-1.18,0.7-2.13,1.78-2.86,3.26c-0.73,1.48-1.09,3.4-1.09,5.76v10.02h-3.36v-22.31h3.31v6.75h-0.59
							c0.36-1.84,0.99-3.31,1.88-4.4c0.89-1.09,1.95-1.87,3.17-2.36c1.22-0.48,2.52-0.73,3.88-0.73c2.72,0,4.87,0.84,6.44,2.52
							c1.57,1.68,2.36,4.1,2.36,7.28V329.58z"/>
						<path d="M466.83,323.23l2.36,2.22c-1.18,1.51-2.6,2.7-4.26,3.56c-1.66,0.86-3.57,1.29-5.71,1.29c-2.36,0-4.47-0.51-6.32-1.54
							c-1.86-1.03-3.32-2.43-4.38-4.22c-1.06-1.78-1.59-3.82-1.59-6.12c0-2.3,0.51-4.34,1.52-6.12c1.01-1.78,2.41-3.19,4.19-4.22
							c1.78-1.03,3.81-1.54,6.08-1.54c2.18,0,4.1,0.51,5.78,1.52c1.68,1.01,3,2.4,3.97,4.15c0.97,1.75,1.45,3.78,1.45,6.08v0.27
							h-3.45v-0.27c0-1.75-0.34-3.29-1.02-4.6c-0.68-1.31-1.6-2.34-2.77-3.08c-1.16-0.74-2.49-1.11-3.97-1.11
							c-1.63,0-3.07,0.38-4.31,1.13c-1.24,0.76-2.21,1.8-2.9,3.13c-0.7,1.33-1.04,2.87-1.04,4.62c0,1.75,0.38,3.31,1.13,4.67
							c0.75,1.36,1.79,2.42,3.11,3.17c1.31,0.76,2.83,1.13,4.56,1.13C462.41,327.36,464.93,325.98,466.83,323.23z M469.92,319.61
							h-20.17v-2.77h19.45l0.73,1.45V319.61z"/>
						<path d="M492.68,323.78l2.4,2.22c-1.03,1.33-2.32,2.38-3.88,3.15c-1.56,0.77-3.32,1.16-5.28,1.16c-2.27,0-4.28-0.51-6.05-1.54
							c-1.77-1.03-3.16-2.43-4.17-4.22c-1.01-1.78-1.52-3.82-1.52-6.12c0-2.3,0.51-4.34,1.52-6.12c1.01-1.78,2.41-3.19,4.19-4.22
							c1.78-1.03,3.81-1.54,6.08-1.54c1.96,0,3.72,0.39,5.26,1.16c1.54,0.77,2.83,1.82,3.85,3.15l-2.4,2.22
							c-0.73-1.09-1.63-1.96-2.72-2.61c-1.09-0.65-2.42-0.98-3.99-0.98c-1.63,0-3.07,0.38-4.31,1.13c-1.24,0.76-2.21,1.81-2.9,3.15
							c-0.7,1.35-1.04,2.89-1.04,4.65c0,1.75,0.35,3.3,1.04,4.65c0.69,1.35,1.66,2.4,2.9,3.15c1.24,0.76,2.67,1.13,4.31,1.13
							c1.57,0,2.9-0.32,3.99-0.97C491.04,325.73,491.95,324.86,492.68,323.78z"/>
						<path d="M512.63,310.13h-14.51v-2.86h14.51V310.13z M512.94,329.58h-5.26c-1.57,0-2.79-0.43-3.65-1.29
							c-0.86-0.86-1.29-2.08-1.29-3.65v-23.89h3.36v23.62c0,0.73,0.2,1.29,0.59,1.7c0.39,0.41,0.97,0.61,1.72,0.61h4.53V329.58z"/>
						<path d="M524.87,330.3c-1.69,0-3.18-0.31-4.47-0.93c-1.29-0.62-2.28-1.46-2.99-2.52c-0.71-1.06-1.07-2.27-1.07-3.63
							c0-1.57,0.44-2.91,1.31-4.01c0.88-1.1,2.08-1.94,3.6-2.52c1.53-0.57,3.26-0.86,5.19-0.86h7.34v2.72h-6.89
							c-2.03,0-3.71,0.37-5.06,1.11c-1.35,0.74-2.02,1.9-2.02,3.47c0,1.33,0.5,2.39,1.5,3.17c1,0.79,2.31,1.18,3.94,1.18
							c1.57,0,2.99-0.31,4.26-0.93c1.27-0.62,2.29-1.49,3.06-2.61c0.77-1.12,1.2-2.4,1.29-3.85l1.36,0.77
							c0,1.81-0.45,3.43-1.34,4.85c-0.89,1.42-2.12,2.54-3.69,3.36C528.64,329.9,526.86,330.3,524.87,330.3z M536.61,329.58h-3.22
							v-4.35l-0.05-1.27v-8.34c0-1.87-0.6-3.37-1.81-4.49c-1.21-1.12-2.84-1.68-4.9-1.68c-1.48,0-2.82,0.32-4.01,0.95
							c-1.19,0.64-2.24,1.5-3.15,2.58l-2.36-2.27c1.24-1.33,2.64-2.36,4.19-3.08c1.56-0.73,3.33-1.09,5.33-1.09
							c1.99,0,3.74,0.37,5.24,1.11c1.5,0.74,2.66,1.78,3.49,3.11c0.83,1.33,1.25,2.9,1.25,4.72V329.58z"/>
						<path d="M561.95,318.29H549.8v-3.04h12.15V318.29z"/>
						<path d="M598.99,300.29h-25.07v-3.13h25.07V300.29z M588.2,329.58h-3.49v-29.74h3.49V329.58z"/>
						<path d="M611.23,306.91v3.26h-0.91c-1.33,0-2.58,0.35-3.76,1.04c-1.18,0.7-2.13,1.78-2.86,3.26c-0.73,1.48-1.09,3.4-1.09,5.76
							v9.34h-3.35v-22.31h3.31v7.07h-0.59c0.36-1.81,1-3.26,1.9-4.35c0.91-1.09,1.96-1.87,3.15-2.36c1.19-0.48,2.43-0.73,3.69-0.73
							H611.23z"/>
						<path d="M622.93,330.3c-1.69,0-3.18-0.31-4.47-0.93c-1.29-0.62-2.28-1.46-2.99-2.52c-0.71-1.06-1.07-2.27-1.07-3.63
							c0-1.57,0.44-2.91,1.31-4.01c0.88-1.1,2.08-1.94,3.6-2.52c1.53-0.57,3.26-0.86,5.19-0.86h7.34v2.72h-6.89
							c-2.03,0-3.71,0.37-5.06,1.11c-1.35,0.74-2.02,1.9-2.02,3.47c0,1.33,0.5,2.39,1.5,3.17c1,0.79,2.31,1.18,3.94,1.18
							c1.57,0,2.99-0.31,4.26-0.93c1.27-0.62,2.29-1.49,3.06-2.61c0.77-1.12,1.2-2.4,1.29-3.85l1.36,0.77
							c0,1.81-0.45,3.43-1.34,4.85c-0.89,1.42-2.12,2.54-3.69,3.36C626.71,329.9,624.92,330.3,622.93,330.3z M634.67,329.58h-3.22
							v-4.35l-0.05-1.27v-8.34c0-1.87-0.6-3.37-1.81-4.49c-1.21-1.12-2.84-1.68-4.9-1.68c-1.48,0-2.82,0.32-4.01,0.95
							c-1.19,0.64-2.24,1.5-3.15,2.58l-2.36-2.27c1.24-1.33,2.64-2.36,4.19-3.08c1.56-0.73,3.33-1.09,5.33-1.09
							c1.99,0,3.74,0.37,5.24,1.11c1.5,0.74,2.66,1.78,3.49,3.11c0.83,1.33,1.25,2.9,1.25,4.72V329.58z"/>
						<path d="M661.15,329.58h-3.36V316.7c0-2.39-0.54-4.19-1.63-5.4c-1.09-1.21-2.55-1.81-4.4-1.81c-1.33,0-2.58,0.35-3.76,1.04
							c-1.18,0.7-2.13,1.78-2.86,3.26c-0.73,1.48-1.09,3.4-1.09,5.76v10.02h-3.36v-22.31h3.31v6.75h-0.59
							c0.36-1.84,0.99-3.31,1.88-4.4c0.89-1.09,1.95-1.87,3.17-2.36c1.22-0.48,2.52-0.73,3.88-0.73c2.72,0,4.87,0.84,6.44,2.52
							c1.57,1.68,2.36,4.1,2.36,7.28V329.58z"/>
						<path d="M665.27,326.13l2.36-2.27c1.06,1.12,2.25,1.99,3.58,2.63c1.33,0.64,2.83,0.95,4.49,0.95c1.81,0,3.3-0.39,4.47-1.16
							c1.16-0.77,1.75-1.76,1.75-2.97c0-1.06-0.49-1.88-1.47-2.47c-0.98-0.59-2.64-1.05-4.96-1.38c-3.39-0.48-5.77-1.22-7.14-2.2
							c-1.38-0.98-2.06-2.3-2.06-3.97c0-1.36,0.39-2.55,1.18-3.56c0.79-1.01,1.87-1.8,3.26-2.36c1.39-0.56,2.98-0.84,4.76-0.84
							c1.99,0,3.78,0.36,5.35,1.09c1.57,0.73,2.96,1.75,4.17,3.08l-2.36,2.27c-0.91-1.12-1.95-1.99-3.13-2.63
							c-1.18-0.63-2.52-0.95-4.03-0.95c-1.66,0-3.04,0.35-4.13,1.04c-1.09,0.7-1.63,1.62-1.63,2.77c0,0.85,0.46,1.52,1.38,2.02
							c0.92,0.5,2.49,0.9,4.69,1.2c3.51,0.48,5.98,1.26,7.41,2.33c1.44,1.07,2.15,2.56,2.15,4.47c0,1.39-0.42,2.62-1.25,3.69
							c-0.83,1.07-1.97,1.9-3.42,2.49c-1.45,0.59-3.11,0.88-4.99,0.88c-2.18,0-4.12-0.37-5.83-1.11
							C668.17,328.45,666.63,327.43,665.27,326.13z"/>
						<path d="M703.18,310.13h-14.51v-2.86h14.51V310.13z M696.65,329.58h-3.35v-27.25c0-3.6,1.8-5.39,5.39-5.39h4.49v2.81h-3.76
							c-0.97,0-1.67,0.22-2.11,0.66c-0.44,0.44-0.66,1.14-0.66,2.11V329.58z"/>
						<path d="M717.55,330.3c-2.27,0-4.29-0.51-6.07-1.54c-1.78-1.03-3.18-2.43-4.19-4.22c-1.01-1.78-1.52-3.82-1.52-6.12
							c0-2.3,0.51-4.34,1.52-6.12c1.01-1.78,2.41-3.19,4.19-4.22c1.78-1.03,3.81-1.54,6.07-1.54c2.3,0,4.33,0.51,6.1,1.54
							c1.77,1.03,3.16,2.43,4.17,4.22c1.01,1.78,1.52,3.82,1.52,6.12c0,2.3-0.51,4.34-1.52,6.12c-1.01,1.78-2.4,3.19-4.17,4.22
							C721.88,329.79,719.84,330.3,717.55,330.3z M717.55,327.36c1.63,0,3.07-0.38,4.31-1.13c1.24-0.76,2.21-1.81,2.9-3.15
							c0.69-1.34,1.04-2.89,1.04-4.65c0-1.75-0.35-3.3-1.04-4.65c-0.7-1.34-1.66-2.39-2.9-3.15c-1.24-0.76-2.67-1.13-4.31-1.13
							c-1.63,0-3.07,0.38-4.31,1.13c-1.24,0.76-2.21,1.81-2.9,3.15c-0.7,1.35-1.04,2.89-1.04,4.65c0,1.75,0.35,3.3,1.04,4.65
							c0.7,1.35,1.66,2.4,2.9,3.15C714.48,326.98,715.92,327.36,717.55,327.36z"/>
						<path d="M746.61,306.91v3.26h-0.91c-1.33,0-2.58,0.35-3.76,1.04c-1.18,0.7-2.13,1.78-2.86,3.26c-0.73,1.48-1.09,3.4-1.09,5.76
							v9.34h-3.35v-22.31h3.31v7.07h-0.59c0.36-1.81,1-3.26,1.9-4.35c0.91-1.09,1.96-1.87,3.15-2.36c1.19-0.48,2.43-0.73,3.69-0.73
							H746.61z"/>
						<path d="M786.87,329.58h-3.36V316.7c0-2.39-0.51-4.19-1.52-5.4c-1.01-1.21-2.36-1.81-4.06-1.81c-1.24,0-2.42,0.35-3.54,1.04
							c-1.12,0.7-2.02,1.78-2.7,3.26c-0.68,1.48-1.02,3.4-1.02,5.76v10.02h-3.36V316.7c0-2.39-0.51-4.19-1.52-5.4
							c-1.01-1.21-2.37-1.81-4.06-1.81c-1.24,0-2.42,0.35-3.54,1.04c-1.12,0.7-2.02,1.78-2.7,3.26c-0.68,1.48-1.02,3.4-1.02,5.76
							v10.02h-3.35v-22.31h3.31v5.71l-0.36-0.05c0.42-1.57,1.06-2.82,1.9-3.74c0.85-0.92,1.82-1.59,2.92-2.02
							c1.1-0.42,2.24-0.64,3.42-0.64c2.09,0,3.8,0.58,5.15,1.75c1.34,1.16,2.21,2.85,2.61,5.05l-0.59,0.05
							c0.42-1.63,1.08-2.95,1.97-3.97c0.89-1.01,1.93-1.75,3.13-2.2c1.19-0.45,2.43-0.68,3.7-0.68c2.69,0,4.79,0.84,6.3,2.52
							s2.27,4.1,2.27,7.28V329.58z"/>
						<path d="M800.06,330.3c-1.69,0-3.18-0.31-4.47-0.93c-1.29-0.62-2.28-1.46-2.99-2.52c-0.71-1.06-1.07-2.27-1.07-3.63
							c0-1.57,0.44-2.91,1.32-4.01c0.88-1.1,2.08-1.94,3.6-2.52c1.53-0.57,3.26-0.86,5.19-0.86h7.35v2.72h-6.89
							c-2.03,0-3.71,0.37-5.05,1.11c-1.35,0.74-2.02,1.9-2.02,3.47c0,1.33,0.5,2.39,1.5,3.17c1,0.79,2.31,1.18,3.94,1.18
							c1.57,0,2.99-0.31,4.26-0.93c1.27-0.62,2.29-1.49,3.06-2.61c0.77-1.12,1.2-2.4,1.29-3.85l1.36,0.77
							c0,1.81-0.45,3.43-1.34,4.85c-0.89,1.42-2.12,2.54-3.7,3.36C803.84,329.9,802.06,330.3,800.06,330.3z M811.8,329.58h-3.22
							v-4.35l-0.05-1.27v-8.34c0-1.87-0.61-3.37-1.81-4.49c-1.21-1.12-2.84-1.68-4.9-1.68c-1.48,0-2.82,0.32-4.01,0.95
							c-1.19,0.64-2.24,1.5-3.15,2.58l-2.36-2.27c1.24-1.33,2.64-2.36,4.19-3.08s3.33-1.09,5.33-1.09s3.74,0.37,5.24,1.11
							c1.5,0.74,2.66,1.78,3.49,3.11c0.83,1.33,1.25,2.9,1.25,4.72V329.58z"/>
						<path d="M837.15,318.29H825v-3.04h12.15V318.29z"/>
						<path d="M878.81,329.58h-3.67l-12.01-30.33h1.54l-12.01,30.33h-3.54l12.97-32.42h3.76L878.81,329.58z M872.64,320.51h-17.64
							v-3.08h17.64V320.51z"/>
						<path d="M890.64,329.58h-3.31l-9.61-22.31h3.63l8.43,20.54h-1.45l8.48-20.54h3.45L890.64,329.58z"/>
						<path d="M910.59,330.3c-1.69,0-3.18-0.31-4.47-0.93c-1.29-0.62-2.28-1.46-2.99-2.52c-0.71-1.06-1.07-2.27-1.07-3.63
							c0-1.57,0.44-2.91,1.32-4.01c0.88-1.1,2.08-1.94,3.6-2.52c1.53-0.57,3.26-0.86,5.19-0.86h7.35v2.72h-6.89
							c-2.03,0-3.71,0.37-5.05,1.11c-1.35,0.74-2.02,1.9-2.02,3.47c0,1.33,0.5,2.39,1.5,3.17c1,0.79,2.31,1.18,3.94,1.18
							c1.57,0,2.99-0.31,4.26-0.93c1.27-0.62,2.29-1.49,3.06-2.61c0.77-1.12,1.2-2.4,1.29-3.85l1.36,0.77
							c0,1.81-0.45,3.43-1.34,4.85c-0.89,1.42-2.12,2.54-3.7,3.36C914.37,329.9,912.59,330.3,910.59,330.3z M922.33,329.58h-3.22
							v-4.35l-0.05-1.27v-8.34c0-1.87-0.61-3.37-1.81-4.49c-1.21-1.12-2.84-1.68-4.9-1.68c-1.48,0-2.82,0.32-4.01,0.95
							c-1.19,0.64-2.24,1.5-3.15,2.58l-2.36-2.27c1.24-1.33,2.64-2.36,4.19-3.08c1.56-0.73,3.33-1.09,5.33-1.09s3.74,0.37,5.24,1.11
							c1.5,0.74,2.66,1.78,3.49,3.11c0.83,1.33,1.25,2.9,1.25,4.72V329.58z"/>
						<path d="M948.81,329.58h-3.35V316.7c0-2.39-0.54-4.19-1.63-5.4c-1.09-1.21-2.55-1.81-4.4-1.81c-1.33,0-2.58,0.35-3.76,1.04
							c-1.18,0.7-2.13,1.78-2.86,3.26c-0.73,1.48-1.09,3.4-1.09,5.76v10.02h-3.35v-22.31h3.31v6.75h-0.59
							c0.36-1.84,0.99-3.31,1.88-4.4c0.89-1.09,1.95-1.87,3.17-2.36c1.22-0.48,2.52-0.73,3.88-0.73c2.72,0,4.87,0.84,6.44,2.52
							s2.36,4.1,2.36,7.28V329.58z"/>
						<path d="M972.07,329.58h-18.59v-2.81l14.1-16.68h-13.65v-2.81h17.68v2.81l-14.1,16.68h14.55V329.58z"/>
						<path d="M984.13,330.3c-1.69,0-3.18-0.31-4.47-0.93c-1.29-0.62-2.28-1.46-2.99-2.52c-0.71-1.06-1.07-2.27-1.07-3.63
							c0-1.57,0.44-2.91,1.32-4.01c0.88-1.1,2.08-1.94,3.6-2.52c1.53-0.57,3.26-0.86,5.19-0.86h7.35v2.72h-6.89
							c-2.03,0-3.71,0.37-5.05,1.11c-1.35,0.74-2.02,1.9-2.02,3.47c0,1.33,0.5,2.39,1.5,3.17c1,0.79,2.31,1.18,3.94,1.18
							c1.57,0,2.99-0.31,4.26-0.93c1.27-0.62,2.29-1.49,3.06-2.61c0.77-1.12,1.2-2.4,1.29-3.85l1.36,0.77
							c0,1.81-0.45,3.43-1.34,4.85c-0.89,1.42-2.12,2.54-3.7,3.36C987.91,329.9,986.12,330.3,984.13,330.3z M995.87,329.58h-3.22
							v-4.35l-0.05-1.27v-8.34c0-1.87-0.61-3.37-1.81-4.49c-1.21-1.12-2.84-1.68-4.9-1.68c-1.48,0-2.82,0.32-4.01,0.95
							c-1.19,0.64-2.24,1.5-3.15,2.58l-2.36-2.27c1.24-1.33,2.64-2.36,4.19-3.08c1.56-0.73,3.33-1.09,5.33-1.09s3.74,0.37,5.24,1.11
							c1.5,0.74,2.66,1.78,3.49,3.11c0.83,1.33,1.25,2.9,1.25,4.72V329.58z"/>
					</g>
				</g>
			</g>
		</g>
	</g>
	<g>
		<path d="M269.19,286.24c23.78,0,43.12-19.34,43.12-43.12c0-23.78-19.34-43.12-43.12-43.12c-17.01,0-31.75,9.9-38.76,24.24
			l-68.84-19.83c0.1-1.13,0.15-2.27,0.15-3.42c0-21.4-17.41-38.81-38.81-38.81c-21.4,0-38.81,17.41-38.81,38.81
			s17.41,38.81,38.81,38.81c15.04,0,28.11-8.6,34.55-21.14l68.83,19.82c-0.16,1.52-0.25,3.07-0.25,4.63
			c0,11.14,4.24,21.3,11.2,28.96L198,322.55c-4.52-2.16-9.57-3.38-14.91-3.38c-19.08,0-34.61,15.53-34.61,34.61
			s15.52,34.61,34.61,34.61c19.08,0,34.61-15.52,34.61-34.61c0-8.4-3.01-16.11-8.01-22.11l39.27-50.47
			C255,284.41,261.88,286.24,269.19,286.24z"/>
		<ellipse transform="matrix(0.3827 -0.9239 0.9239 0.3827 -132.3935 492.3877)" cx="302.26" cy="345.26" rx="24.39" ry="24.39"/>
		<path d="M234.17,181.43c8.22,0,14.9-6.69,14.9-14.9c0-8.22-6.69-14.9-14.9-14.9c-8.22,0-14.9,6.69-14.9,14.9
			C219.26,174.74,225.95,181.43,234.17,181.43z"/>
		<path d="M152.41,285.68c0-6.55-5.33-11.87-11.87-11.87c-6.55,0-11.87,5.33-11.87,11.87c0,6.55,5.33,11.87,11.87,11.87
			C147.09,297.56,152.41,292.23,152.41,285.68z"/>
	</g>
</g>
</svg>
