<?xml version="1.0" encoding="utf-8"?>
<!-- Generator: Adobe Illustrator 25.0.0, SVG Export Plug-In . SVG Version: 6.00 Build 0)  -->
<svg version="1.1" id="Capa_1" xmlns="http://www.w3.org/2000/svg" xmlns:xlink="http://www.w3.org/1999/xlink" x="0px" y="0px"
	 viewBox="0 0 1080 1080" style="enable-background:new 0 0 1080 1080;" xml:space="preserve">
<style type="text/css">
	.st0{fill:#0E393C;}
	.st1{fill:#58A081;}
	.st2{fill:#0B2028;}
</style>
<g>
	<g>
		<g>
			<g>
				<g>
					<path class="st0" d="M149.97,853.23c-3.24,0-6.24-0.81-8.99-2.43c-2.75-1.62-4.94-3.8-6.56-6.56
						c-1.62-2.75-2.43-5.75-2.43-8.99v-8.14h18.83v7.17h49.56v-15.3h-50.41c-3.24,0-6.24-0.81-8.99-2.43
						c-2.75-1.62-4.94-3.79-6.56-6.5c-1.62-2.71-2.43-5.73-2.43-9.05v-17.25c0-3.32,0.81-6.33,2.43-9.05
						c1.62-2.71,3.81-4.88,6.56-6.5c2.75-1.62,5.75-2.43,8.99-2.43h51.5c3.24,0,6.21,0.81,8.93,2.43c2.71,1.62,4.9,3.79,6.56,6.5
						c1.66,2.71,2.49,5.73,2.49,9.05v8.14h-19.07v-7.17h-49.56v15.31h50.65c3.24,0,6.21,0.81,8.93,2.43c2.71,1.62,4.9,3.79,6.56,6.5
						c1.66,2.71,2.49,5.73,2.49,9.05v17.25c0,3.24-0.83,6.24-2.49,8.99c-1.66,2.75-3.85,4.94-6.56,6.56
						c-2.71,1.62-5.69,2.43-8.93,2.43H149.97z"/>
					<path class="st0" d="M264.15,853.23v-32.67l-40.45-54.78h22.47l27.45,34.5l27.33-34.5h22.71l-40.57,54.9v32.55H264.15z"/>
					<path class="st0" d="M342.98,853.23c-3.24,0-6.24-0.81-8.99-2.43c-2.75-1.62-4.94-3.8-6.56-6.56
						c-1.62-2.75-2.43-5.75-2.43-8.99v-8.14h18.83v7.17h49.56v-15.3h-50.41c-3.24,0-6.24-0.81-8.99-2.43
						c-2.75-1.62-4.94-3.79-6.56-6.5c-1.62-2.71-2.43-5.73-2.43-9.05v-17.25c0-3.32,0.81-6.33,2.43-9.05
						c1.62-2.71,3.81-4.88,6.56-6.5c2.75-1.62,5.75-2.43,8.99-2.43h51.5c3.24,0,6.21,0.81,8.93,2.43c2.71,1.62,4.9,3.79,6.56,6.5
						c1.66,2.71,2.49,5.73,2.49,9.05v8.14h-19.07v-7.17h-49.56v15.31h50.65c3.24,0,6.21,0.81,8.93,2.43c2.71,1.62,4.9,3.79,6.56,6.5
						c1.66,2.71,2.49,5.73,2.49,9.05v17.25c0,3.24-0.83,6.24-2.49,8.99c-1.66,2.75-3.85,4.94-6.56,6.56
						c-2.71,1.62-5.69,2.43-8.93,2.43H342.98z"/>
					<path class="st1" d="M452.06,853.23l-31.82-87.46h20.04l19.07,52.11l19.07-52.11h17.37l19.19,52.11l19.07-52.11h19.92
						l-31.82,87.46h-14.45l-20.65-56.24l-20.53,56.24H452.06z"/>
					<path class="st1" d="M580.94,853.23c-3.24,0-6.24-0.81-8.99-2.43c-2.75-1.62-4.94-3.8-6.56-6.56
						c-1.62-2.75-2.43-5.75-2.43-8.99v-51.5c0-3.32,0.81-6.33,2.43-9.05c1.62-2.71,3.81-4.88,6.56-6.5
						c2.75-1.62,5.75-2.43,8.99-2.43h51.5c3.24,0,6.21,0.81,8.93,2.43c2.71,1.62,4.9,3.79,6.56,6.5c1.66,2.71,2.49,5.73,2.49,9.05
						v51.5c0,3.24-0.83,6.24-2.49,8.99c-1.66,2.75-3.85,4.94-6.56,6.56c-2.71,1.62-5.69,2.43-8.93,2.43H580.94z M631.34,834.28
						v-49.56h-49.56v49.56H631.34z"/>
					<path class="st1" d="M663.77,853.23v-87.33h69.36c3.32,0,6.33,0.81,9.05,2.43c2.71,1.62,4.9,3.81,6.56,6.56
						c1.66,2.75,2.49,5.75,2.49,8.99v22.59c0,3.24-0.83,6.24-2.49,8.99c-1.66,2.75-3.85,4.94-6.56,6.56
						c-2.71,1.62-5.73,2.43-9.05,2.43l-50.53,0.12v28.67H663.77z M732.16,805.49v-20.77H682.6v20.77H732.16z M731.67,853.23
						l-25.39-30.25h24.66l20.16,23.81v6.44H731.67z"/>
					<path class="st1" d="M764.11,853.23v-87.46h18.95v34.25h17.13l28.67-34.25h19.68v6.56l-31.22,37.17l31.22,37.17v6.56h-19.68
						l-28.67-34.25h-17.13v34.25H764.11z"/>
					<path class="st1" d="M878.53,853.23c-3.24,0-6.24-0.81-8.99-2.43c-2.75-1.62-4.94-3.8-6.56-6.56
						c-1.62-2.75-2.43-5.75-2.43-8.99v-8.14h18.83v7.17h49.56v-15.3h-50.41c-3.24,0-6.24-0.81-8.99-2.43
						c-2.75-1.62-4.94-3.79-6.56-6.5c-1.62-2.71-2.43-5.73-2.43-9.05v-17.25c0-3.32,0.81-6.33,2.43-9.05
						c1.62-2.71,3.81-4.88,6.56-6.5c2.75-1.62,5.75-2.43,8.99-2.43h51.5c3.24,0,6.21,0.81,8.93,2.43c2.71,1.62,4.9,3.79,6.56,6.5
						c1.66,2.71,2.49,5.73,2.49,9.05v8.14h-19.07v-7.17h-49.56v15.31h50.65c3.24,0,6.21,0.81,8.93,2.43c2.71,1.62,4.9,3.79,6.56,6.5
						c1.66,2.71,2.49,5.73,2.49,9.05v17.25c0,3.24-0.83,6.24-2.49,8.99c-1.66,2.75-3.85,4.94-6.56,6.56
						c-2.71,1.62-5.69,2.43-8.93,2.43H878.53z"/>
				</g>
				<g>
					<path class="st2" d="M166.12,915.43l3.26,3.08c-1.78,2.44-4.12,4.37-7,5.78c-2.89,1.42-6.06,2.12-9.51,2.12
						c-2.98,0-5.75-0.54-8.28-1.63c-2.54-1.08-4.75-2.61-6.63-4.56c-1.88-1.96-3.34-4.25-4.39-6.89c-1.05-2.63-1.57-5.5-1.57-8.6
						c0-3.1,0.53-5.98,1.6-8.63c1.07-2.65,2.55-4.96,4.45-6.92c1.9-1.96,4.12-3.48,6.66-4.56c2.54-1.08,5.3-1.63,8.28-1.63
						c3.45,0,6.6,0.71,9.45,2.12c2.85,1.42,5.16,3.34,6.95,5.78l-3.26,3.08c-1.43-2.13-3.26-3.82-5.46-5.06
						c-2.21-1.24-4.77-1.86-7.67-1.86c-3.1,0-5.88,0.77-8.34,2.3c-2.46,1.53-4.41,3.62-5.84,6.28c-1.43,2.66-2.15,5.69-2.15,9.1
						c0,3.37,0.72,6.39,2.15,9.04c1.43,2.66,3.38,4.75,5.84,6.28c2.46,1.53,5.24,2.3,8.34,2.3c2.91,0,5.46-0.62,7.67-1.86
						C162.86,919.25,164.68,917.57,166.12,915.43z"/>
					<path class="st2" d="M189.6,926.42c-2.91,0-5.5-0.66-7.79-1.98c-2.29-1.32-4.08-3.12-5.38-5.41c-1.3-2.29-1.95-4.9-1.95-7.85
						c0-2.94,0.65-5.56,1.95-7.85c1.3-2.29,3.09-4.09,5.38-5.41c2.29-1.32,4.88-1.98,7.79-1.98c2.94,0,5.55,0.66,7.82,1.98
						c2.27,1.32,4.05,3.12,5.35,5.41c1.3,2.29,1.95,4.9,1.95,7.85c0,2.95-0.65,5.56-1.95,7.85c-1.3,2.29-3.08,4.09-5.35,5.41
						C195.16,925.76,192.55,926.42,189.6,926.42z M189.6,922.64c2.09,0,3.93-0.48,5.52-1.45c1.59-0.97,2.83-2.32,3.72-4.04
						c0.89-1.72,1.34-3.71,1.34-5.96c0-2.25-0.45-4.23-1.34-5.96c-0.89-1.72-2.13-3.07-3.72-4.04c-1.59-0.97-3.43-1.45-5.52-1.45
						c-2.09,0-3.93,0.49-5.52,1.45c-1.59,0.97-2.83,2.32-3.72,4.04c-0.89,1.72-1.34,3.71-1.34,5.96c0,2.25,0.45,4.23,1.34,5.96
						c0.89,1.73,2.13,3.07,3.72,4.04C185.67,922.16,187.51,922.64,189.6,922.64z"/>
					<path class="st2" d="M237.74,925.49h-4.3v-16.51c0-3.06-0.7-5.37-2.09-6.92c-1.4-1.55-3.28-2.33-5.64-2.33
						c-1.71,0-3.31,0.45-4.83,1.34c-1.51,0.89-2.73,2.29-3.66,4.19c-0.93,1.9-1.4,4.36-1.4,7.38v12.85h-4.3v-28.6h4.24v8.66h-0.76
						c0.46-2.36,1.27-4.24,2.41-5.64c1.14-1.4,2.5-2.4,4.07-3.02c1.57-0.62,3.23-0.93,4.97-0.93c3.49,0,6.24,1.08,8.25,3.23
						c2.01,2.15,3.02,5.26,3.02,9.33V925.49z"/>
					<path class="st2" d="M269.65,917.35l3.02,2.85c-1.51,1.94-3.33,3.46-5.46,4.56c-2.13,1.1-4.57,1.66-7.32,1.66
						c-3.02,0-5.73-0.66-8.11-1.98c-2.38-1.32-4.25-3.12-5.61-5.41c-1.36-2.29-2.03-4.9-2.03-7.85c0-2.94,0.65-5.56,1.95-7.85
						c1.3-2.29,3.09-4.09,5.38-5.41c2.29-1.32,4.88-1.98,7.79-1.98c2.79,0,5.26,0.65,7.41,1.95c2.15,1.3,3.85,3.07,5.09,5.32
						c1.24,2.25,1.86,4.85,1.86,7.79v0.35h-4.42v-0.35c0-2.25-0.44-4.21-1.31-5.9c-0.87-1.69-2.05-3-3.55-3.95
						c-1.49-0.95-3.19-1.42-5.09-1.42c-2.09,0-3.93,0.49-5.52,1.45c-1.59,0.97-2.83,2.31-3.72,4.01c-0.89,1.71-1.34,3.68-1.34,5.93
						c0,2.25,0.48,4.24,1.45,5.99c0.97,1.74,2.3,3.1,3.98,4.07s3.63,1.45,5.84,1.45C263.97,922.64,267.21,920.88,269.65,917.35z
						 M273.61,912.7h-25.87v-3.55h24.94l0.93,1.86V912.7z"/>
					<path class="st2" d="M302.79,918.05l3.08,2.85c-1.32,1.71-2.97,3.05-4.97,4.04c-2,0.99-4.25,1.48-6.77,1.48
						c-2.91,0-5.49-0.66-7.76-1.98c-2.27-1.32-4.05-3.12-5.35-5.41c-1.3-2.29-1.95-4.9-1.95-7.85c0-2.94,0.65-5.56,1.95-7.85
						c1.3-2.29,3.09-4.09,5.38-5.41c2.29-1.32,4.88-1.98,7.79-1.98c2.52,0,4.77,0.49,6.74,1.48c1.98,0.99,3.62,2.34,4.94,4.04
						l-3.08,2.85c-0.93-1.39-2.09-2.51-3.49-3.34c-1.4-0.83-3.1-1.25-5.12-1.25c-2.09,0-3.93,0.49-5.52,1.45
						c-1.59,0.97-2.83,2.32-3.72,4.04c-0.89,1.72-1.34,3.71-1.34,5.96c0,2.25,0.45,4.23,1.34,5.96c0.89,1.73,2.13,3.07,3.72,4.04
						c1.59,0.97,3.43,1.45,5.52,1.45c2.01,0,3.72-0.42,5.12-1.25S301.86,919.45,302.79,918.05z"/>
					<path class="st2" d="M328.37,900.55h-18.6v-3.66h18.6V900.55z M328.77,925.49h-6.74c-2.02,0-3.58-0.55-4.68-1.66
						c-1.1-1.1-1.66-2.66-1.66-4.68v-30.64h4.3v30.29c0,0.93,0.25,1.66,0.76,2.18c0.5,0.52,1.24,0.78,2.21,0.78h5.81V925.49z"/>
					<path class="st2" d="M344.06,926.42c-2.17,0-4.08-0.4-5.73-1.19c-1.65-0.79-2.93-1.87-3.84-3.23
						c-0.91-1.36-1.37-2.91-1.37-4.65c0-2.01,0.56-3.73,1.69-5.15c1.12-1.41,2.66-2.49,4.62-3.23c1.96-0.74,4.18-1.1,6.66-1.1h9.42
						v3.49h-8.84c-2.6,0-4.76,0.47-6.48,1.42c-1.72,0.95-2.59,2.43-2.59,4.45c0,1.71,0.64,3.06,1.92,4.07
						c1.28,1.01,2.96,1.51,5.06,1.51c2.01,0,3.84-0.4,5.46-1.19c1.63-0.79,2.94-1.91,3.92-3.34c0.99-1.43,1.54-3.08,1.66-4.94
						l1.74,0.99c0,2.33-0.57,4.4-1.71,6.22c-1.14,1.82-2.72,3.26-4.74,4.3C348.91,925.9,346.62,926.42,344.06,926.42z
						 M359.12,925.49h-4.13v-5.58l-0.06-1.63v-10.7c0-2.4-0.78-4.32-2.33-5.76c-1.55-1.43-3.64-2.15-6.28-2.15
						c-1.9,0-3.61,0.41-5.14,1.22c-1.53,0.81-2.88,1.92-4.04,3.31l-3.02-2.91c1.59-1.7,3.38-3.02,5.38-3.95
						c2-0.93,4.27-1.4,6.83-1.4c2.56,0,4.8,0.48,6.71,1.42c1.92,0.95,3.41,2.28,4.48,3.98c1.07,1.71,1.6,3.72,1.6,6.05V925.49z"/>
					<path class="st2" d="M391.62,911.02h-15.58v-3.9h15.58V911.02z"/>
					<path class="st2" d="M439.11,887.94h-32.15v-4.01h32.15V887.94z M425.27,925.49h-4.48v-38.14h4.48V925.49z"/>
					<path class="st2" d="M454.81,896.42v4.19h-1.16c-1.71,0-3.31,0.45-4.83,1.34c-1.51,0.89-2.73,2.29-3.66,4.19
						c-0.93,1.9-1.4,4.36-1.4,7.38v11.98h-4.3v-28.6h4.24v9.07h-0.76c0.46-2.33,1.28-4.19,2.44-5.58c1.16-1.4,2.51-2.4,4.04-3.02
						c1.53-0.62,3.11-0.93,4.74-0.93H454.81z"/>
					<path class="st2" d="M469.8,926.42c-2.17,0-4.08-0.4-5.73-1.19c-1.65-0.79-2.93-1.87-3.84-3.23c-0.91-1.36-1.37-2.91-1.37-4.65
						c0-2.01,0.56-3.73,1.69-5.15c1.12-1.41,2.66-2.49,4.62-3.23c1.96-0.74,4.18-1.1,6.66-1.1h9.42v3.49h-8.84
						c-2.6,0-4.76,0.47-6.48,1.42c-1.72,0.95-2.59,2.43-2.59,4.45c0,1.71,0.64,3.06,1.92,4.07c1.28,1.01,2.96,1.51,5.06,1.51
						c2.01,0,3.84-0.4,5.46-1.19c1.63-0.79,2.94-1.91,3.92-3.34c0.99-1.43,1.54-3.08,1.66-4.94l1.74,0.99c0,2.33-0.57,4.4-1.71,6.22
						c-1.14,1.82-2.72,3.26-4.74,4.3C474.65,925.9,472.36,926.42,469.8,926.42z M484.86,925.49h-4.13v-5.58l-0.06-1.63v-10.7
						c0-2.4-0.78-4.32-2.33-5.76c-1.55-1.43-3.64-2.15-6.28-2.15c-1.9,0-3.61,0.41-5.14,1.22c-1.53,0.81-2.88,1.92-4.04,3.31
						l-3.02-2.91c1.59-1.7,3.38-3.02,5.38-3.95c2-0.93,4.27-1.4,6.83-1.4c2.56,0,4.8,0.48,6.71,1.42c1.92,0.95,3.41,2.28,4.48,3.98
						c1.07,1.71,1.6,3.72,1.6,6.05V925.49z"/>
					<path class="st2" d="M518.81,925.49h-4.3v-16.51c0-3.06-0.7-5.37-2.09-6.92c-1.4-1.55-3.28-2.33-5.64-2.33
						c-1.71,0-3.31,0.45-4.83,1.34c-1.51,0.89-2.73,2.29-3.66,4.19c-0.93,1.9-1.4,4.36-1.4,7.38v12.85h-4.3v-28.6h4.24v8.66h-0.76
						c0.46-2.36,1.27-4.24,2.41-5.64c1.14-1.4,2.5-2.4,4.07-3.02c1.57-0.62,3.23-0.93,4.97-0.93c3.49,0,6.24,1.08,8.25,3.23
						c2.01,2.15,3.02,5.26,3.02,9.33V925.49z"/>
					<path class="st2" d="M524.1,921.07l3.02-2.91c1.36,1.43,2.89,2.56,4.59,3.37c1.71,0.81,3.62,1.22,5.76,1.22
						c2.33,0,4.23-0.49,5.73-1.48c1.49-0.99,2.24-2.26,2.24-3.81c0-1.36-0.63-2.41-1.89-3.17c-1.26-0.76-3.38-1.35-6.37-1.77
						c-4.34-0.62-7.39-1.56-9.16-2.82c-1.76-1.26-2.65-2.96-2.65-5.09c0-1.74,0.5-3.26,1.51-4.56c1.01-1.3,2.4-2.31,4.19-3.02
						c1.78-0.72,3.82-1.08,6.1-1.08c2.56,0,4.84,0.47,6.86,1.4c2.01,0.93,3.8,2.25,5.35,3.95l-3.02,2.91
						c-1.16-1.43-2.5-2.56-4.01-3.37c-1.51-0.81-3.24-1.22-5.17-1.22c-2.13,0-3.9,0.45-5.29,1.34c-1.39,0.89-2.09,2.07-2.09,3.55
						c0,1.09,0.59,1.95,1.77,2.59c1.18,0.64,3.19,1.15,6.02,1.54c4.5,0.62,7.66,1.62,9.5,2.99c1.84,1.38,2.76,3.28,2.76,5.73
						c0,1.78-0.53,3.36-1.6,4.74c-1.07,1.38-2.53,2.44-4.39,3.2c-1.86,0.76-3.99,1.13-6.39,1.13c-2.79,0-5.28-0.48-7.47-1.42
						C527.81,924.05,525.84,922.74,524.1,921.07z"/>
					<path class="st2" d="M572.7,900.55h-18.6v-3.66h18.6V900.55z M564.33,925.49h-4.3v-34.94c0-4.61,2.3-6.92,6.92-6.92h5.75v3.6
						h-4.83c-1.24,0-2.14,0.28-2.7,0.84c-0.56,0.56-0.84,1.46-0.84,2.7V925.49z"/>
					<path class="st2" d="M591.13,926.42c-2.91,0-5.5-0.66-7.79-1.98c-2.29-1.32-4.08-3.12-5.38-5.41c-1.3-2.29-1.95-4.9-1.95-7.85
						c0-2.94,0.65-5.56,1.95-7.85c1.3-2.29,3.09-4.09,5.38-5.41c2.29-1.32,4.88-1.98,7.79-1.98c2.95,0,5.55,0.66,7.82,1.98
						s4.05,3.12,5.35,5.41c1.3,2.29,1.95,4.9,1.95,7.85c0,2.95-0.65,5.56-1.95,7.85c-1.3,2.29-3.08,4.09-5.35,5.41
						C596.68,925.76,594.07,926.42,591.13,926.42z M591.13,922.64c2.09,0,3.93-0.48,5.52-1.45c1.59-0.97,2.83-2.32,3.72-4.04
						c0.89-1.72,1.34-3.71,1.34-5.96c0-2.25-0.45-4.23-1.34-5.96c-0.89-1.72-2.13-3.07-3.72-4.04c-1.59-0.97-3.43-1.45-5.52-1.45
						c-2.09,0-3.93,0.49-5.52,1.45c-1.59,0.97-2.83,2.32-3.72,4.04c-0.89,1.72-1.34,3.71-1.34,5.96c0,2.25,0.44,4.23,1.34,5.96
						c0.89,1.73,2.13,3.07,3.72,4.04C587.19,922.16,589.04,922.64,591.13,922.64z"/>
					<path class="st2" d="M628.39,896.42v4.19h-1.16c-1.71,0-3.31,0.45-4.83,1.34c-1.51,0.89-2.73,2.29-3.66,4.19
						c-0.93,1.9-1.4,4.36-1.4,7.38v11.98h-4.3v-28.6h4.24v9.07h-0.76c0.46-2.33,1.28-4.19,2.44-5.58c1.16-1.4,2.51-2.4,4.04-3.02
						c1.53-0.62,3.11-0.93,4.74-0.93H628.39z"/>
					<path class="st2" d="M680.01,925.49h-4.3v-16.51c0-3.06-0.65-5.37-1.95-6.92c-1.3-1.55-3.03-2.33-5.2-2.33
						c-1.59,0-3.1,0.45-4.53,1.34c-1.43,0.89-2.59,2.29-3.46,4.19c-0.87,1.9-1.31,4.36-1.31,7.38v12.85h-4.3v-16.51
						c0-3.06-0.65-5.37-1.95-6.92c-1.3-1.55-3.03-2.33-5.2-2.33c-1.59,0-3.1,0.45-4.53,1.34c-1.43,0.89-2.59,2.29-3.46,4.19
						c-0.87,1.9-1.31,4.36-1.31,7.38v12.85h-4.3v-28.6h4.24v7.32l-0.46-0.06c0.54-2.01,1.36-3.61,2.44-4.8
						c1.08-1.18,2.34-2.04,3.75-2.59c1.41-0.54,2.88-0.81,4.39-0.81c2.67,0,4.87,0.75,6.6,2.24c1.72,1.49,2.84,3.65,3.34,6.48
						l-0.76,0.06c0.54-2.09,1.39-3.79,2.53-5.09c1.14-1.3,2.48-2.24,4.01-2.82c1.53-0.58,3.11-0.87,4.74-0.87
						c3.45,0,6.14,1.08,8.08,3.23c1.94,2.15,2.91,5.26,2.91,9.33V925.49z"/>
					<path class="st2" d="M696.93,926.42c-2.17,0-4.08-0.4-5.73-1.19c-1.65-0.79-2.93-1.87-3.84-3.23
						c-0.91-1.36-1.37-2.91-1.37-4.65c0-2.01,0.56-3.73,1.69-5.15c1.12-1.41,2.66-2.49,4.62-3.23c1.96-0.74,4.18-1.1,6.66-1.1h9.42
						v3.49h-8.84c-2.6,0-4.76,0.47-6.48,1.42c-1.72,0.95-2.59,2.43-2.59,4.45c0,1.71,0.64,3.06,1.92,4.07
						c1.28,1.01,2.96,1.51,5.06,1.51c2.01,0,3.84-0.4,5.46-1.19c1.63-0.79,2.94-1.91,3.92-3.34c0.99-1.43,1.54-3.08,1.66-4.94
						l1.74,0.99c0,2.33-0.57,4.4-1.71,6.22c-1.14,1.82-2.72,3.26-4.74,4.3C701.77,925.9,699.49,926.42,696.93,926.42z
						 M711.99,925.49h-4.13v-5.58l-0.06-1.63v-10.7c0-2.4-0.78-4.32-2.33-5.76c-1.55-1.43-3.64-2.15-6.28-2.15
						c-1.9,0-3.61,0.41-5.14,1.22c-1.53,0.81-2.88,1.92-4.04,3.31l-3.02-2.91c1.59-1.7,3.38-3.02,5.38-3.95
						c2-0.93,4.27-1.4,6.83-1.4s4.8,0.48,6.71,1.42c1.92,0.95,3.41,2.28,4.48,3.98c1.07,1.71,1.6,3.72,1.6,6.05V925.49z"/>
					<path class="st2" d="M744.48,911.02H728.9v-3.9h15.58V911.02z"/>
					<path class="st2" d="M797.91,925.49h-4.71l-15.41-38.89h1.98l-15.41,38.89h-4.54l16.63-41.57h4.83L797.91,925.49z M790,913.87
						h-22.61v-3.95H790V913.87z"/>
					<path class="st2" d="M813.08,925.49h-4.24l-12.32-28.6h4.65l10.81,26.33h-1.86l10.87-26.33h4.42L813.08,925.49z"/>
					<path class="st2" d="M838.66,926.42c-2.17,0-4.08-0.4-5.73-1.19c-1.65-0.79-2.93-1.87-3.84-3.23
						c-0.91-1.36-1.37-2.91-1.37-4.65c0-2.01,0.56-3.73,1.69-5.15c1.12-1.41,2.66-2.49,4.62-3.23c1.96-0.74,4.18-1.1,6.66-1.1h9.42
						v3.49h-8.84c-2.6,0-4.76,0.47-6.48,1.42c-1.72,0.95-2.59,2.43-2.59,4.45c0,1.71,0.64,3.06,1.92,4.07
						c1.28,1.01,2.96,1.51,5.06,1.51c2.01,0,3.84-0.4,5.46-1.19c1.63-0.79,2.94-1.91,3.92-3.34c0.99-1.43,1.54-3.08,1.66-4.94
						l1.74,0.99c0,2.33-0.57,4.4-1.71,6.22c-1.14,1.82-2.72,3.26-4.74,4.3C843.5,925.9,841.22,926.42,838.66,926.42z M853.72,925.49
						h-4.13v-5.58l-0.06-1.63v-10.7c0-2.4-0.78-4.32-2.33-5.76c-1.55-1.43-3.64-2.15-6.28-2.15c-1.9,0-3.61,0.41-5.14,1.22
						c-1.53,0.81-2.88,1.92-4.04,3.31l-3.02-2.91c1.59-1.7,3.38-3.02,5.38-3.95c2-0.93,4.27-1.4,6.83-1.4s4.8,0.48,6.71,1.42
						c1.92,0.95,3.41,2.28,4.48,3.98c1.07,1.71,1.6,3.72,1.6,6.05V925.49z"/>
					<path class="st2" d="M887.66,925.49h-4.3v-16.51c0-3.06-0.7-5.37-2.09-6.92c-1.4-1.55-3.27-2.33-5.64-2.33
						c-1.71,0-3.31,0.45-4.83,1.34c-1.51,0.89-2.73,2.29-3.66,4.19c-0.93,1.9-1.4,4.36-1.4,7.38v12.85h-4.3v-28.6h4.24v8.66h-0.76
						c0.46-2.36,1.27-4.24,2.41-5.64c1.14-1.4,2.5-2.4,4.07-3.02c1.57-0.62,3.23-0.93,4.97-0.93c3.49,0,6.24,1.08,8.25,3.23
						c2.02,2.15,3.02,5.26,3.02,9.33V925.49z"/>
					<path class="st2" d="M917.49,925.49h-23.83v-3.6l18.08-21.39h-17.5v-3.6h22.67v3.6l-18.08,21.39h18.66V925.49z"/>
					<path class="st2" d="M932.95,926.42c-2.17,0-4.08-0.4-5.73-1.19c-1.65-0.79-2.93-1.87-3.84-3.23
						c-0.91-1.36-1.37-2.91-1.37-4.65c0-2.01,0.56-3.73,1.69-5.15c1.12-1.41,2.66-2.49,4.62-3.23c1.96-0.74,4.18-1.1,6.66-1.1h9.42
						v3.49h-8.84c-2.6,0-4.76,0.47-6.48,1.42c-1.72,0.95-2.59,2.43-2.59,4.45c0,1.71,0.64,3.06,1.92,4.07
						c1.28,1.01,2.96,1.51,5.06,1.51c2.01,0,3.84-0.4,5.46-1.19c1.63-0.79,2.94-1.91,3.92-3.34c0.99-1.43,1.54-3.08,1.66-4.94
						l1.74,0.99c0,2.33-0.57,4.4-1.71,6.22c-1.14,1.82-2.72,3.26-4.74,4.3C937.79,925.9,935.51,926.42,932.95,926.42z
						 M948.01,925.49h-4.13v-5.58l-0.06-1.63v-10.7c0-2.4-0.78-4.32-2.33-5.76c-1.55-1.43-3.64-2.15-6.28-2.15
						c-1.9,0-3.61,0.41-5.14,1.22c-1.53,0.81-2.88,1.92-4.04,3.31l-3.02-2.91c1.59-1.7,3.38-3.02,5.38-3.95
						c2-0.93,4.27-1.4,6.83-1.4s4.8,0.48,6.71,1.42c1.92,0.95,3.41,2.28,4.48,3.98c1.07,1.71,1.6,3.72,1.6,6.05V925.49z"/>
				</g>
			</g>
		</g>
	</g>
	<g>
		<path class="st2" d="M680.24,449.51c52.27,0,94.78-42.52,94.78-94.78s-42.52-94.78-94.78-94.78c-37.39,0-69.79,21.76-85.2,53.29
			l-151.32-43.58c0.22-2.48,0.33-4.98,0.33-7.52c0-47.04-38.27-85.31-85.31-85.31c-47.04,0-85.31,38.27-85.31,85.31
			s38.27,85.31,85.31,85.31c33.06,0,61.79-18.91,75.94-46.48l151.31,43.58c-0.36,3.35-0.55,6.74-0.55,10.18
			c0,24.48,9.33,46.82,24.61,63.65l-86.31,110.93c-9.93-4.76-21.04-7.43-32.77-7.43c-41.95,0-76.07,34.13-76.07,76.07
			s34.13,76.07,76.07,76.07s76.07-34.13,76.07-76.07c0-18.47-6.62-35.42-17.61-48.61l86.32-110.94
			C649.05,445.49,664.18,449.51,680.24,449.51z"/>
		
			<ellipse transform="matrix(0.7071 -0.7071 0.7071 0.7071 -189.0646 702.0654)" class="st0" cx="752.94" cy="579.25" rx="53.62" ry="53.62"/>
		<path class="st0" d="M603.26,219.1c18.06,0,32.76-14.7,32.76-32.76c0-18.07-14.7-32.76-32.76-32.76
			c-18.07,0-32.76,14.7-32.76,32.76C570.49,204.41,585.19,219.1,603.26,219.1z"/>
		<path class="st0" d="M423.55,448.28c0-14.39-11.71-26.1-26.1-26.1s-26.1,11.71-26.1,26.1c0,14.39,11.71,26.1,26.1,26.1
			S423.55,462.68,423.55,448.28z"/>
	</g>
</g>
</svg>
